<svg width="20" height="12" viewBox="0 0 20 12" fill="none" xmlns="http://www.w3.org/2000/svg">
<path d="M17.8021 8.298C17.8021 8.298 19.4191 9.895 19.8191 10.634C19.8269 10.6447 19.833 10.6565 19.8371 10.669C20.0001 10.942 20.0401 11.156 19.9601 11.314C19.8251 11.575 19.3681 11.706 19.2131 11.717H16.3551C16.1561 11.717 15.7421 11.665 15.2381 11.317C14.8531 11.048 14.4701 10.605 14.0991 10.172C13.5451 9.529 13.0661 8.971 12.5811 8.971C12.5198 8.97087 12.459 8.98101 12.4011 9.001C12.0341 9.117 11.5681 9.64 11.5681 11.033C11.5681 11.469 11.2241 11.717 10.9831 11.717H9.6741C9.2281 11.717 6.9061 11.561 4.8471 9.39C2.32409 6.732 0.0580901 1.39999 0.0360901 1.35299C-0.10491 1.00799 0.19109 0.819994 0.511091 0.819994H3.39709C3.78409 0.819994 3.91009 1.05399 3.99809 1.26399C4.10009 1.50499 4.4781 2.469 5.0981 3.552C6.1021 5.314 6.7191 6.031 7.2121 6.031C7.30472 6.03127 7.39578 6.00713 7.4761 5.961C8.1201 5.607 8.0001 3.307 7.9701 2.833C7.9701 2.741 7.9691 1.80599 7.6391 1.35399C7.4031 1.02999 7.0011 0.903994 6.7581 0.857994C6.8231 0.763994 6.9611 0.619994 7.1381 0.534993C7.5791 0.314993 8.3761 0.282993 9.1671 0.282993H9.6061C10.4641 0.294993 10.6861 0.349993 10.9981 0.428993C11.6261 0.578993 11.6381 0.985994 11.5831 2.372C11.5671 2.768 11.5501 3.214 11.5501 3.739C11.5501 3.851 11.5451 3.976 11.5451 4.103C11.5261 4.814 11.5011 5.615 12.0031 5.944C12.0682 5.98456 12.1434 6.00604 12.2201 6.006C12.3941 6.006 12.9151 6.006 14.3281 3.581C14.9481 2.51 15.4281 1.24699 15.4611 1.15199C15.4891 1.09899 15.5731 0.949994 15.6751 0.889994C15.7477 0.851389 15.8289 0.832104 15.9111 0.833994H19.3061C19.6761 0.833994 19.9271 0.889994 19.9761 1.02999C20.0581 1.25699 19.9601 1.94999 18.4101 4.046C18.1491 4.395 17.9201 4.697 17.7191 4.961C16.3141 6.805 16.3141 6.898 17.8021 8.298Z" fill="white"/>
</svg>
