<svg width="26" height="18" viewBox="0 0 26 18" fill="none" xmlns="http://www.w3.org/2000/svg">
<path d="M10.4437 12.7172V5.28281L16.9766 9L10.4437 12.7172ZM24.9781 2.94375C24.6906 1.86094 23.8422 1.00781 22.7672 0.718748C20.8172 0.193748 13 0.193748 13 0.193748C13 0.193748 5.18281 0.193748 3.23281 0.718748C2.15781 1.00781 1.30937 1.86094 1.02187 2.94375C0.5 4.90625 0.5 9 0.5 9C0.5 9 0.5 13.0937 1.02187 15.0562C1.30937 16.1391 2.15781 16.9922 3.23281 17.2812C5.18281 17.8062 13 17.8062 13 17.8062C13 17.8062 20.8172 17.8062 22.7672 17.2812C23.8422 16.9922 24.6906 16.1391 24.9781 15.0562C25.5 13.0937 25.5 9 25.5 9C25.5 9 25.5 4.90625 24.9781 2.94375Z" fill="white"/>
</svg>
